<?xml version="1.0"?>
<svg xmlns="http://www.w3.org/2000/svg" viewBox="0 0 192 192" width="512" height="512"><g id="_11-dice" data-name="11-dice"><circle cx="48" cy="40" r="8"/><circle cx="72" cy="40" r="8"/><circle cx="48" cy="64" r="8"/><circle cx="72" cy="64" r="8"/><path d="M176.568,111.03l-39.6-39.6A24.051,24.051,0,0,0,112,65.764V24A24.027,24.027,0,0,0,88,0H32A24.027,24.027,0,0,0,8,24V80a24.027,24.027,0,0,0,24,24H70.461l-7.029,7.029a24,24,0,0,0,0,33.941l39.6,39.6a24,24,0,0,0,33.941,0l39.6-39.6a24,24,0,0,0,0-33.941ZM32,88a8.009,8.009,0,0,1-8-8V24a8.009,8.009,0,0,1,8-8H88a8.009,8.009,0,0,1,8,8V78.461L86.461,88Zm133.255,45.657-39.6,39.6a8,8,0,0,1-11.312,0h0l-39.6-39.6a8,8,0,0,1,0-11.313l39.6-39.6a8,8,0,0,1,11.313,0l39.6,39.6a8,8,0,0,1,0,11.313Z"/><circle cx="120" cy="128" r="8"/></g></svg>
